<?xml version="1.0" encoding="UTF-8" standalone="no"?>
<!DOCTYPE svg PUBLIC "-//W3C//DTD SVG 1.1//EN" "http://www.w3.org/Graphics/SVG/1.1/DTD/svg11.dtd">
<svg width="100%" height="100%" viewBox="0 0 2211 1000" version="1.1" xmlns="http://www.w3.org/2000/svg" xmlns:xlink="http://www.w3.org/1999/xlink" xml:space="preserve" xmlns:serif="http://www.serif.com/" style="fill-rule:evenodd;clip-rule:evenodd;stroke-linejoin:round;stroke-miterlimit:2;">
    <g transform="matrix(1,0,0,1,-9676,0)">
        <g id="NESTI-LOGO-BLACK" transform="matrix(1,0,0,1,-0.0333333,0)">
            <rect x="9676.03" y="0" width="2210.7" height="1000" style="fill:none;"/>
            <g transform="matrix(2.55428,0,0,2.55428,9842.13,164.215)">
                <path d="M374.481,106.744C397.411,106.744 414.27,121.472 414.27,147.154L414.27,191.819L397.895,191.819L397.895,147.486C397.895,131.294 387.91,122.618 374.481,122.618C361.052,122.618 351.066,131.294 351.066,147.486L351.066,191.819L334.691,191.819L334.691,147.154C334.691,121.472 351.564,106.744 374.481,106.744ZM478.441,193.436C453.222,193.429 435.222,175.443 435.222,150.083C435.222,124.718 453.727,106.73 479.271,106.73C503.349,106.73 520.54,123.254 520.54,146.16C520.54,149.6 520.208,152.542 519.558,155.485L456.839,155.485C453.893,155.485 452.413,156.797 452.413,159.408C452.413,168.402 463.38,178.874 479.105,178.874C489.091,178.874 499.09,175.269 503.502,166.606L519.71,166.606C513.489,184.92 497.286,193.432 478.455,193.436L478.441,193.436ZM451.929,142.568L501.054,142.568C503.018,142.568 504.331,141.421 504.331,139.459C504.331,130.783 494.512,120.808 479.437,120.808C464.362,120.808 453.893,129.319 451.929,142.568ZM536.749,165.791L553.94,165.791C556.72,175.448 566.221,179.372 577.686,179.372C589.151,179.372 597.339,175.614 597.339,167.435C597.339,160.569 591.765,157.626 583.91,157.129L565.571,155.651C550.828,154.504 539.211,147.306 539.211,132.427C539.211,115.572 554.12,106.744 573.924,106.744C593.729,106.744 608.638,114.923 612.732,132.925L595.375,132.925C591.931,123.765 582.444,120.656 573.924,120.656C563.109,120.656 555.586,124.248 555.586,131.778C555.586,138.478 560.827,141.103 568.849,141.587L586.703,142.899C603.244,144.212 613.727,151.575 613.727,166.289C613.727,184.124 597.837,193.45 576.884,193.45C555.931,193.45 540.207,184.124 536.763,165.805L536.749,165.791ZM676.267,192.952C657.112,192.952 646.297,182.812 646.297,162.034L646.297,123.268L625.013,123.268L625.013,108.375L640.074,108.375C643.835,108.375 646.297,106.081 646.297,102.158L646.297,78.934L662.672,78.934L662.672,108.375L695.588,108.375L695.588,123.268L662.672,123.268L662.672,160.735C662.672,171.525 666.766,177.258 678.881,177.258C682.975,177.258 688.382,176.927 695.588,175.946L695.588,191.654C688.382,192.8 681.827,192.966 676.267,192.966L676.267,192.952ZM712.778,76.972C712.778,70.921 717.854,65.851 724.078,65.851C730.301,65.851 735.211,70.921 735.211,76.972C735.211,83.023 730.135,88.259 724.078,88.259C718.02,88.259 712.778,83.189 712.778,76.972ZM732.265,108.375L732.265,191.806L715.89,191.806L715.89,108.375L732.265,108.375Z"/>
                <path d="M184.096,39.892L65.475,109.3L65.475,246.431L0.225,207.5L0.225,69.526L116.314,0.96L184.096,39.892ZM178.411,73.532L237.701,108.043L150.862,158.884L150.862,261.96L92.167,227.449L92.167,123.696L178.411,73.532ZM175.535,174.509L241.38,135.356L241.38,192.8L191.287,226.261L175.535,251.543L175.535,174.509Z"/>
            </g>
        </g>
    </g>
</svg>
